<?xml version="1.0" encoding="utf-8"?>
<!-- Generator: Adobe Illustrator 23.0.6, SVG Export Plug-In . SVG Version: 6.00 Build 0)  -->
<svg version="1.1" id="Capa_1" xmlns="http://www.w3.org/2000/svg" xmlns:xlink="http://www.w3.org/1999/xlink" x="0px" y="0px"
	 viewBox="0 0 34.46 28" style="enable-background:new 0 0 34.46 28;" xml:space="preserve">
<style type="text/css">
	.st0{fill:#FFFFFF;}
</style>
<g>
	<g>
		<path class="st0" d="M34.46,3.31c-1.28,0.56-2.65,0.93-4.07,1.12c1.46-0.87,2.58-2.25,3.11-3.9c-1.37,0.81-2.87,1.39-4.48,1.71
			C27.72,0.86,25.87,0,23.86,0c-3.91,0-7.06,3.17-7.06,7.07c0,0.56,0.05,1.1,0.16,1.61C11.09,8.39,5.89,5.58,2.4,1.29
			C1.79,2.35,1.43,3.56,1.43,4.86c0,2.45,1.26,4.62,3.14,5.87c-1.14-0.02-2.25-0.35-3.19-0.87c0,0.02,0,0.05,0,0.08
			c0,3.43,2.45,6.28,5.66,6.94c-0.58,0.16-1.2,0.23-1.85,0.23c-0.45,0-0.91-0.03-1.34-0.12c0.92,2.8,3.51,4.85,6.6,4.92
			c-2.4,1.88-5.46,3.01-8.76,3.01c-0.58,0-1.14-0.03-1.69-0.1C3.13,26.85,6.84,28,10.84,28c13,0,20.11-10.77,20.11-20.1
			c0-0.31-0.01-0.61-0.03-0.91C32.32,5.99,33.5,4.74,34.46,3.31z"/>
	</g>
</g>
</svg>
