<?xml version="1.0" encoding="UTF-8" standalone="no"?>
<svg
   xmlns:dc="http://purl.org/dc/elements/1.1/"
   xmlns:cc="http://creativecommons.org/ns#"
   xmlns:rdf="http://www.w3.org/1999/02/22-rdf-syntax-ns#"
   xmlns:svg="http://www.w3.org/2000/svg"
   xmlns="http://www.w3.org/2000/svg"
   id="svg1013"
   version="1.1"
   viewBox="0 0 60.854165 9.2604169"
   height="35"
   width="230">
  <defs
     id="defs1007">
    <clipPath
       id="clipPath18"
       clipPathUnits="userSpaceOnUse">
      <path
         id="path16"
         d="M 0,595.276 H 841.89 V 0 H 0 Z" />
    </clipPath>
  </defs>
  <metadata
     id="metadata1010">
    <rdf:RDF>
      <cc:Work
         rdf:about="">
        <dc:format>image/svg+xml</dc:format>
        <dc:type
           rdf:resource="http://purl.org/dc/dcmitype/StillImage" />
        <dc:title></dc:title>
      </cc:Work>
    </rdf:RDF>
  </metadata>
  <g
     transform="translate(0,-287.73955)"
     id="layer1">
    <g
       style="stroke-width:4.02125692"
       clip-path="url(#clipPath18)"
       id="g14"
       transform="matrix(0.08772823,0,0,-0.08772823,-6.9129619,320.68416)">
      <g
         style="stroke-width:4.02125692"
         transform="translate(350.6401,293.3537)"
         id="g20">
        <path
           id="path22"
           style="fill:#e4032e;fill-opacity:1;fill-rule:nonzero;stroke:none;stroke-width:4.02125692"
           d="m 0,0 c 0,-1.043 0.844,-2.331 3.664,-2.331 2.863,0 3.552,0.999 3.552,1.821 0,0.822 -0.422,1.31 -2.198,1.554 L 1.354,1.532 c -1.665,0.222 -3.152,1.288 -3.152,3.087 0,2.353 2.043,3.752 5.306,3.752 3.819,0 5.484,-1.643 5.683,-3.908 H 6.972 C 6.905,5.64 5.795,6.639 3.486,6.639 2.065,6.639 0.422,6.239 0.422,4.863 0.422,4.086 0.777,3.642 2.354,3.42 L 5.506,2.998 c 2.931,-0.4 4.063,-1.443 4.063,-3.087 0,-2.708 -2.287,-3.973 -5.839,-3.973 -2.664,0 -5.706,0.688 -5.95,4.062 z" />
      </g>
      <g
         style="stroke-width:4.02125692"
         transform="translate(373.9727,293.9533)"
         id="g24">
        <path
           id="path26"
           style="fill:#e4032e;fill-opacity:1;fill-rule:nonzero;stroke:none;stroke-width:4.02125692"
           d="m 0,0 c -0.932,-3.485 -3.042,-4.662 -6.061,-4.662 -4.618,0 -6.327,3.131 -6.327,6.149 0,3.442 2.109,6.284 6.305,6.284 3.108,0 5.573,-1.398 6.039,-4.285 h -2.353 c -0.267,1.51 -1.466,2.42 -3.531,2.42 -2.842,0 -4.107,-1.865 -4.107,-4.351 0,-2.488 1.265,-4.352 4.107,-4.352 1.998,0 3.086,0.865 3.575,2.797 z" />
      </g>
      <g
         style="stroke-width:4.02125692"
         transform="translate(375.9253,305.6765)"
         id="g28">
        <path
           id="path30"
           style="fill:#e4032e;fill-opacity:1;fill-rule:nonzero;stroke:none;stroke-width:4.02125692"
           d="m 0,0 h 2.22 v -6.105 h 0.044 c 1.044,1.62 2.886,2.153 4.551,2.153 2.798,0 4.885,-1.199 4.885,-4.108 v -7.926 H 9.48 v 7.483 c 0,1.709 -1.066,2.686 -3.441,2.686 -2.021,0 -3.819,-1.177 -3.819,-3.463 v -6.706 H 0 Z" />
      </g>
      <g
         style="stroke-width:4.02125692"
         transform="translate(390.1777,301.3249)"
         id="g32">
        <path
           id="path34"
           style="fill:#e4032e;fill-opacity:1;fill-rule:nonzero;stroke:none;stroke-width:4.02125692"
           d="m 0,0 h 2.22 v -1.754 h 0.044 c 1.044,1.621 2.886,2.153 4.552,2.153 2.797,0 4.884,-1.198 4.884,-4.107 v -7.926 H 9.48 v 7.482 c 0,1.71 -1.066,2.687 -3.441,2.687 -2.021,0 -3.819,-1.177 -3.819,-3.464 v -6.705 H 0 Z" />
      </g>
      <g
         style="stroke-width:4.02125692"
         transform="translate(414.6206,296.5735)"
         id="g36">
        <path
           id="path38"
           style="fill:#e4032e;fill-opacity:1;fill-rule:nonzero;stroke:none;stroke-width:4.02125692"
           d="M 0,0 C -0.333,2.109 -1.976,3.286 -4.063,3.286 -6.105,3.286 -7.948,2.087 -8.281,0 Z m -8.348,-1.731 c 0.178,-2.399 2.309,-3.686 4.285,-3.686 1.266,0 2.997,0.422 3.752,2.064 h 2.353 c -1.11,-2.797 -3.707,-3.929 -5.994,-3.929 -4.529,0 -6.749,2.864 -6.749,6.217 0,3.352 2.22,6.216 6.749,6.216 3.064,0 6.305,-1.776 6.305,-6.594 v -0.288 z" />
      </g>
      <path
         id="path40"
         style="fill:#e4032e;fill-opacity:1;fill-rule:nonzero;stroke:none;stroke-width:4.02125692"
         d="m 419.082,305.676 h 2.22 V 289.69 h -2.22 z" />
      <path
         id="path42"
         style="fill:#e4032e;fill-opacity:1;fill-rule:nonzero;stroke:none;stroke-width:4.02125692"
         d="m 423.854,305.676 h 2.22 V 289.69 h -2.22 z" />
      <g
         style="stroke-width:4.02125692"
         transform="translate(430.9795,292.1721)"
         id="g44">
        <path
           id="path46"
           style="fill:#e4032e;fill-opacity:1;fill-rule:nonzero;stroke:none;stroke-width:4.02125692"
           d="m 0,0 c 0.91,0 1.644,-0.732 1.644,-1.644 0,-0.91 -0.734,-1.642 -1.644,-1.642 -0.91,0 -1.643,0.732 -1.643,1.642 C -1.643,-0.732 -0.91,0 0,0" />
      </g>
      <g
         style="stroke-width:4.02125692"
         transform="translate(437.4395,293.3537)"
         id="g48">
        <path
           id="path50"
           style="fill:#e4032e;fill-opacity:1;fill-rule:nonzero;stroke:none;stroke-width:4.02125692"
           d="m 0,0 c 0,-1.043 0.844,-2.331 3.664,-2.331 2.863,0 3.552,0.999 3.552,1.821 0,0.822 -0.422,1.31 -2.198,1.554 L 1.354,1.532 c -1.665,0.222 -3.152,1.288 -3.152,3.087 0,2.353 2.043,3.752 5.306,3.752 3.819,0 5.484,-1.643 5.683,-3.908 H 6.972 C 6.905,5.64 5.795,6.639 3.486,6.639 2.065,6.639 0.422,6.239 0.422,4.863 0.422,4.086 0.777,3.642 2.354,3.42 L 5.507,2.998 c 2.931,-0.4 4.062,-1.443 4.062,-3.087 0,-2.708 -2.287,-3.973 -5.839,-3.973 -2.664,0 -5.706,0.688 -5.95,4.062 z" />
      </g>
      <path
         id="path52"
         style="fill:#e4032e;fill-opacity:1;fill-rule:nonzero;stroke:none;stroke-width:4.02125692"
         d="m 448.895,301.325 h 2.22 v -11.634 h -2.22 z m 0,4.351 h 2.22 v -2.442 h -2.22 z" />
      <g
         style="stroke-width:4.02125692"
         transform="translate(465.5449,293.9533)"
         id="g54">
        <path
           id="path56"
           style="fill:#e4032e;fill-opacity:1;fill-rule:nonzero;stroke:none;stroke-width:4.02125692"
           d="m 0,0 c -0.933,-3.485 -3.042,-4.662 -6.062,-4.662 -4.617,0 -6.327,3.131 -6.327,6.149 0,3.442 2.11,6.284 6.306,6.284 3.108,0 5.572,-1.398 6.038,-4.285 h -2.352 c -0.267,1.51 -1.466,2.42 -3.531,2.42 -2.842,0 -4.107,-1.865 -4.107,-4.351 0,-2.488 1.265,-4.352 4.107,-4.352 1.998,0 3.086,0.865 3.574,2.797 z" />
      </g>
      <g
         style="stroke-width:4.02125692"
         transform="translate(467.498,305.6765)"
         id="g58">
        <path
           id="path60"
           style="fill:#e4032e;fill-opacity:1;fill-rule:nonzero;stroke:none;stroke-width:4.02125692"
           d="m 0,0 h 2.22 v -6.105 h 0.044 c 1.044,1.62 2.886,2.153 4.551,2.153 2.798,0 4.885,-1.199 4.885,-4.108 v -7.926 H 9.479 v 7.483 c 0,1.709 -1.065,2.686 -3.441,2.686 -2.02,0 -3.818,-1.177 -3.818,-3.463 v -6.706 H 0 Z" />
      </g>
      <g
         style="stroke-width:4.02125692"
         transform="translate(491.9404,296.5735)"
         id="g62">
        <path
           id="path64"
           style="fill:#e4032e;fill-opacity:1;fill-rule:nonzero;stroke:none;stroke-width:4.02125692"
           d="M 0,0 C -0.333,2.109 -1.976,3.286 -4.062,3.286 -6.105,3.286 -7.948,2.087 -8.281,0 Z m -8.348,-1.731 c 0.178,-2.399 2.309,-3.686 4.286,-3.686 1.265,0 2.997,0.422 3.751,2.064 h 2.354 c -1.11,-2.797 -3.708,-3.929 -5.995,-3.929 -4.528,0 -6.749,2.864 -6.749,6.217 0,3.352 2.221,6.216 6.749,6.216 3.064,0 6.306,-1.776 6.306,-6.594 v -0.288 z" />
      </g>
      <g
         style="stroke-width:4.02125692"
         transform="translate(496.4023,301.3249)"
         id="g66">
        <path
           id="path68"
           style="fill:#e4032e;fill-opacity:1;fill-rule:nonzero;stroke:none;stroke-width:4.02125692"
           d="m 0,0 h 2.22 v -2.131 h 0.044 c 1.044,1.842 2.531,2.53 3.997,2.53 0.554,0 0.843,-0.022 1.264,-0.133 V -2.131 C 6.971,-1.999 6.549,-1.91 5.949,-1.91 3.752,-1.91 2.22,-3.197 2.22,-5.728 v -5.906 H 0 Z" />
      </g>
      <g
         style="stroke-width:4.02125692"
         transform="translate(507.6348,292.1721)"
         id="g70">
        <path
           id="path72"
           style="fill:#e4032e;fill-opacity:1;fill-rule:nonzero;stroke:none;stroke-width:4.02125692"
           d="m 0,0 c 0.91,0 1.644,-0.732 1.644,-1.644 0,-0.91 -0.734,-1.642 -1.644,-1.642 -0.91,0 -1.643,0.732 -1.643,1.642 C -1.643,-0.732 -0.91,0 0,0" />
      </g>
      <g
         style="stroke-width:4.02125692"
         transform="translate(514.0947,293.3537)"
         id="g74">
        <path
           id="path76"
           style="fill:#e4032e;fill-opacity:1;fill-rule:nonzero;stroke:none;stroke-width:4.02125692"
           d="m 0,0 c 0,-1.043 0.844,-2.331 3.664,-2.331 2.863,0 3.552,0.999 3.552,1.821 0,0.822 -0.422,1.31 -2.198,1.554 L 1.354,1.532 c -1.665,0.222 -3.152,1.288 -3.152,3.087 0,2.353 2.043,3.752 5.306,3.752 3.819,0 5.484,-1.643 5.683,-3.908 H 6.972 C 6.905,5.64 5.795,6.639 3.486,6.639 2.065,6.639 0.422,6.239 0.422,4.863 0.422,4.086 0.777,3.642 2.354,3.42 L 5.507,2.998 c 2.931,-0.4 4.062,-1.443 4.062,-3.087 0,-2.708 -2.287,-3.973 -5.839,-3.973 -2.664,0 -5.706,0.688 -5.95,4.062 z" />
      </g>
      <g
         style="stroke-width:4.02125692"
         transform="translate(526.5264,304.8991)"
         id="g78">
        <path
           id="path80"
           style="fill:#e4032e;fill-opacity:1;fill-rule:nonzero;stroke:none;stroke-width:4.02125692"
           d="m 0,0 h 2.221 v -3.574 h 3.33 v -1.732 h -3.33 v -7.171 c 0,-0.933 0.666,-1.266 1.798,-1.266 0.51,0 1.021,0.067 1.532,0.156 v -1.866 C 4.796,-15.585 3.975,-15.608 3.064,-15.608 0.889,-15.608 0,-14.542 0,-12.855 v 7.549 h -2.397 v 1.732 H 0 Z" />
      </g>
      <g
         style="stroke-width:4.02125692"
         transform="translate(542.6221,295.7737)"
         id="g82">
        <path
           id="path84"
           style="fill:#e4032e;fill-opacity:1;fill-rule:nonzero;stroke:none;stroke-width:4.02125692"
           d="m 0,0 c -0.333,-0.377 -0.933,-0.532 -2.176,-0.687 l -2.509,-0.312 c -1.732,-0.222 -2.642,-0.688 -2.642,-1.909 0,-1.088 1.088,-1.843 2.709,-1.843 2.509,0 4.618,1.332 4.618,3.264 z m -9.036,1.91 c 0.288,2.908 2.286,4.041 5.772,4.041 2.375,0 5.351,-0.6 5.351,-3.308 v -6.261 c 0,-0.689 0.31,-0.999 0.999,-0.999 0.244,0 0.555,0.044 0.776,0.089 V -6.083 C 3.33,-6.172 2.664,-6.216 2.131,-6.216 c -1.11,0 -1.843,0.311 -1.998,1.62 -0.888,-1.198 -3.064,-1.886 -4.951,-1.886 -3.863,0 -4.729,1.998 -4.729,3.507 0,2.132 1.266,3.22 4.995,3.62 l 2.531,0.266 C -0.777,1.044 0,1.266 0,2.31 c 0,1.598 -1.555,1.909 -3.353,1.909 -1.909,0 -3.53,-0.511 -3.596,-2.309 z" />
      </g>
      <g
         style="stroke-width:4.02125692"
         transform="translate(547.8379,301.3249)"
         id="g86">
        <path
           id="path88"
           style="fill:#e4032e;fill-opacity:1;fill-rule:nonzero;stroke:none;stroke-width:4.02125692"
           d="m 0,0 h 2.22 v -1.754 h 0.045 c 1.043,1.621 2.885,2.153 4.55,2.153 2.798,0 4.885,-1.198 4.885,-4.107 v -7.926 H 9.479 v 7.482 c 0,1.71 -1.065,2.687 -3.44,2.687 -2.02,0 -3.819,-1.177 -3.819,-3.464 v -6.705 H 0 Z" />
      </g>
      <g
         style="stroke-width:4.02125692"
         transform="translate(561.335,291.511)"
         id="g90">
        <path
           id="path92"
           style="fill:#e4032e;fill-opacity:1;fill-rule:nonzero;stroke:none;stroke-width:4.02125692"
           d="M 0,0 8.569,7.949 H 0.422 V 9.814 H 11.634 V 8.082 L 2.953,0.045 h 9.014 V -1.82 H 0 Z" />
      </g>
      <g
         style="stroke-width:4.02125692"
         transform="translate(585.2891,296.5735)"
         id="g94">
        <path
           id="path96"
           style="fill:#e4032e;fill-opacity:1;fill-rule:nonzero;stroke:none;stroke-width:4.02125692"
           d="M 0,0 C -0.333,2.109 -1.976,3.286 -4.063,3.286 -6.105,3.286 -7.948,2.087 -8.281,0 Z m -8.348,-1.731 c 0.178,-2.399 2.309,-3.686 4.285,-3.686 1.265,0 2.998,0.422 3.752,2.064 h 2.353 c -1.109,-2.797 -3.707,-3.929 -5.994,-3.929 -4.529,0 -6.749,2.864 -6.749,6.217 0,3.352 2.22,6.216 6.749,6.216 3.064,0 6.306,-1.776 6.306,-6.594 v -0.288 z" />
      </g>
      <g
         style="stroke-width:4.02125692"
         transform="translate(589.751,301.3249)"
         id="g98">
        <path
           id="path100"
           style="fill:#e4032e;fill-opacity:1;fill-rule:nonzero;stroke:none;stroke-width:4.02125692"
           d="m 0,0 h 2.22 v -1.754 h 0.045 c 1.043,1.621 2.885,2.153 4.55,2.153 2.798,0 4.885,-1.198 4.885,-4.107 v -7.926 H 9.479 v 7.482 c 0,1.71 -1.065,2.687 -3.44,2.687 -2.02,0 -3.819,-1.177 -3.819,-3.464 v -6.705 H 0 Z" />
      </g>
      <g
         style="stroke-width:4.02125692"
         transform="translate(139.0024,308.0193)"
         id="g102">
        <path
           id="path104"
           style="fill:#7d6f6a;fill-opacity:1;fill-rule:nonzero;stroke:none;stroke-width:4.02125692"
           d="m 0,0 c 11.251,0 17.399,5.568 17.399,16.008 0,10.44 -6.148,16.007 -17.399,16.007 -11.484,0 -17.516,-6.264 -17.516,-16.007 C -17.516,6.264 -11.484,0 0,0 m -42.107,47.559 h 23.895 v -8.352 h 0.233 c 5.219,6.38 13.919,9.976 23.895,9.976 22.271,0 36.771,-12.296 36.771,-34.103 0,-18.212 -13.456,-32.943 -36.54,-32.943 -10.903,0 -19.255,3.596 -23.431,8.236 h -0.232 v -28.42 h -24.591 z" />
      </g>
      <g
         style="stroke-width:4.02125692"
         transform="translate(190.623,355.5783)"
         id="g106">
        <path
           id="path108"
           style="fill:#7d6f6a;fill-opacity:1;fill-rule:nonzero;stroke:none;stroke-width:4.02125692"
           d="m 0,0 h 24.243 v -12.412 h 0.232 c 4.872,8.352 14.5,14.036 25.636,14.036 2.668,0 5.915,-0.232 8.351,-0.696 V -22.04 c -3.131,1.161 -8.931,2.088 -13.571,2.088 -14.036,0 -20.3,-7.192 -20.3,-18.559 V -62.87 H 0 Z" />
      </g>
      <g
         style="stroke-width:4.02125692"
         transform="translate(314.5078,331.1028)"
         id="g110">
        <path
           id="path112"
           style="fill:#7d6f6a;fill-opacity:1;fill-rule:nonzero;stroke:none;stroke-width:4.02125692"
           d="m 0,0 c -1.392,6.96 -6.612,12.876 -18.211,12.876 -11.6,0 -16.82,-5.916 -18.212,-12.876 z m 24.127,-19.719 c -3.015,-10.44 -14.963,-21.227 -41.758,-21.227 -28.304,0 -44.079,10.787 -44.079,34.102 0,22.272 17.283,33.871 43.382,33.871 26.912,0 43.616,-11.715 43.616,-37.931 v -1.856 h -61.711 c 1.276,-8.119 7.076,-14.035 19.719,-14.035 7.888,0 11.948,3.364 14.848,7.076 z" />
      </g>
      <g
         style="stroke-width:4.02125692"
         transform="translate(602.9961,355.5783)"
         id="g114">
        <path
           id="path116"
           style="fill:#7d6f6a;fill-opacity:1;fill-rule:nonzero;stroke:none;stroke-width:4.02125692"
           d="M 0,0 H 12.876 V 19.952 H 37.467 V 0 h 16.24 v -16.24 h -16.24 v -25.287 c 0,-5.684 1.392,-6.496 8.004,-6.496 3.016,0 5.452,0.116 8.7,0.232 v -15.312 c -4.988,-0.696 -11.484,-1.16 -18.676,-1.16 -16.008,0 -22.619,3.945 -22.619,17.516 V -16.24 H 0 Z" />
      </g>
      <g
         style="stroke-width:4.02125692"
         transform="translate(722.7061,322.0549)"
         id="g118">
        <path
           id="path120"
           style="fill:#7d6f6a;fill-opacity:1;fill-rule:nonzero;stroke:none;stroke-width:4.02125692"
           d="m 0,0 c -1.855,-0.58 -4.871,-1.16 -9.396,-1.74 l -16.587,-1.972 c -4.988,-0.58 -7.076,-2.552 -7.076,-6.38 0,-4.871 4.408,-7.656 11.02,-7.656 14.151,0 22.039,5.336 22.039,13.92 z m -55.446,13.804 c 2.32,18.675 20.067,21.343 39.323,21.343 22.852,0 40.019,-3.711 40.019,-21.343 v -31.783 c 0,-5.336 0.58,-7.772 2.552,-11.368 H 1.856 c -0.812,1.856 -1.16,4.06 -1.276,5.8 -7.075,-6.728 -17.167,-8.351 -29.579,-8.351 -20.067,0 -30.739,6.495 -30.739,19.603 0,14.267 9.511,19.371 27.143,20.531 L -8.119,9.86 c 6.38,0.464 7.424,1.856 7.424,5.104 0,4.408 -4.756,6.727 -15.544,6.727 -9.048,0 -13.456,-2.551 -14.615,-7.887 z" />
      </g>
      <g
         style="stroke-width:4.02125692"
         transform="translate(543.0244,318.2273)"
         id="g122">
        <path
           id="path124"
           style="fill:#7d6f6a;fill-opacity:1;fill-rule:nonzero;stroke:none;stroke-width:4.02125692"
           d="m 0,0 21.924,-2.668 c 6.032,-0.696 8.468,-1.624 8.468,-4.988 0,-1.14 -0.371,-2.059 -1.01,-2.796 h 28.194 c 0.278,1.32 0.423,2.713 0.423,4.188 0,12.296 -8.352,17.515 -25.287,19.371 l -21.228,2.321 c -6.264,0.696 -7.888,2.435 -7.888,4.407 0,4.292 4.176,5.916 11.252,5.916 3.131,0 6.38,-0.348 8.816,-1.392 2.436,-0.928 4.176,-2.668 4.407,-5.336 h 27.608 c -1.392,17.864 -22.503,20.88 -39.207,20.88 -23.547,0 -38.163,-5.336 -38.163,-22.387 C -21.691,6.844 -14.384,1.74 0,0" />
      </g>
      <g
         style="stroke-width:4.02125692"
         transform="translate(456.2305,318.2273)"
         id="g126">
        <path
           id="path128"
           style="fill:#7d6f6a;fill-opacity:1;fill-rule:nonzero;stroke:none;stroke-width:4.02125692"
           d="m 0,0 21.924,-2.668 c 6.032,-0.696 8.468,-1.624 8.468,-4.988 0,-1.14 -0.371,-2.059 -1.01,-2.796 h 28.194 c 0.278,1.32 0.423,2.713 0.423,4.188 0,12.296 -8.352,17.515 -25.287,19.371 l -21.228,2.321 c -6.264,0.696 -7.888,2.435 -7.888,4.407 0,4.292 4.176,5.916 11.252,5.916 3.131,0 6.38,-0.348 8.816,-1.392 2.436,-0.928 4.176,-2.668 4.407,-5.336 h 27.608 c -1.392,17.864 -22.503,20.88 -39.207,20.88 -23.547,0 -38.163,-5.336 -38.163,-22.387 C -21.691,6.844 -14.384,1.74 0,0" />
      </g>
      <g
         style="stroke-width:4.02125692"
         transform="translate(369.436,318.2273)"
         id="g130">
        <path
           id="path132"
           style="fill:#7d6f6a;fill-opacity:1;fill-rule:nonzero;stroke:none;stroke-width:4.02125692"
           d="m 0,0 21.924,-2.668 c 6.032,-0.696 8.468,-1.624 8.468,-4.988 0,-1.14 -0.371,-2.059 -1.01,-2.796 h 28.195 c 0.276,1.32 0.422,2.713 0.422,4.188 0,12.296 -8.352,17.515 -25.287,19.371 l -21.228,2.321 c -6.264,0.696 -7.888,2.435 -7.888,4.407 0,4.292 4.176,5.916 11.252,5.916 3.131,0 6.38,-0.348 8.816,-1.392 2.436,-0.928 4.176,-2.668 4.407,-5.336 h 27.607 c -1.391,17.864 -22.502,20.88 -39.206,20.88 -23.547,0 -38.163,-5.336 -38.163,-22.387 C -21.691,6.844 -14.384,1.74 0,0" />
      </g>
    </g>
  </g>
</svg>
