<?xml version="1.0" encoding="UTF-8" standalone="no"?>
<svg
   xmlns:dc="http://purl.org/dc/elements/1.1/"
   xmlns:cc="http://creativecommons.org/ns#"
   xmlns:rdf="http://www.w3.org/1999/02/22-rdf-syntax-ns#"
   xmlns:svg="http://www.w3.org/2000/svg"
   xmlns="http://www.w3.org/2000/svg"
   id="svg1746"
   version="1.1"
   viewBox="0 0 334 55"
   height="55"
   width="334">
  <defs
     id="defs1740" />
  <metadata
     id="metadata1743">
    <rdf:RDF>
      <cc:Work
         rdf:about="">
        <dc:format>image/svg+xml</dc:format>
        <dc:type
           rdf:resource="http://purl.org/dc/dcmitype/StillImage" />
        <dc:title></dc:title>
      </cc:Work>
    </rdf:RDF>
  </metadata>
  <g
     transform="translate(0,-330.24998)"
     id="layer1">
    <g
       id="g1699"
       transform="matrix(0.13333333,0,0,-0.13333333,-486.55307,448.08774)">
      <path
         d="m 4659.26,591.301 c -1.7,7.5 -6.36,9.597 -16.04,9.597 -6.98,0 -13.43,-1.496 -13.43,-7.898 0,-4.898 3.13,-5.801 17.28,-7.699 14.25,-1.903 20.16,-4.403 20.16,-13.5 0,-9.199 -7.52,-14.699 -22.13,-14.699 -14.78,0 -23.56,4.8 -23.56,16 h 6.09 c 1.17,-7.801 5.56,-10.5 17.47,-10.5 9.23,0 15.5,1.898 15.5,8.898 0,4.602 -3.31,6.703 -17.83,8.102 -14.51,1.5 -19.61,4.898 -19.61,13.097 0,8.102 6.53,13.801 20.06,13.801 15.14,0 21.32,-5.5 22.13,-15.199 h -6.09"
         style="fill:#ffffff;fill-opacity:1;fill-rule:nonzero;stroke:none"
         id="path540" />
      <path
         d="m 4721.15,575.199 c -1.25,-6.097 -6.63,-18.097 -23.56,-18.097 -16.84,0 -26.25,10.097 -26.25,24.699 0,14 8.6,24.699 26.25,24.699 15.94,0 22.13,-9.898 23.2,-16.699 h -6.63 c -2.06,8 -8.33,11.199 -16.57,11.199 -13.35,0 -19.62,-8.5 -19.62,-19.199 0,-11.602 6.99,-19.199 19.62,-19.199 9.76,0 15.23,5.3 16.93,12.597 h 6.63"
         style="fill:#ffffff;fill-opacity:1;fill-rule:nonzero;stroke:none"
         id="path542" />
      <path
         d="m 4727.86,623 h 6.63 v -27.102 h 0.18 c 1.97,5 8.96,10.602 19.26,10.602 15.5,0 20.16,-8.102 20.16,-19.199 V 558.5 h -6.63 v 30 c 0,9.199 -5.65,12.5 -14.07,12.5 -12.99,0 -18.9,-6.699 -18.9,-17.199 V 558.5 h -6.63 V 623"
         style="fill:#ffffff;fill-opacity:1;fill-rule:nonzero;stroke:none"
         id="path544" />
      <path
         d="m 4823.26,588.5 c 0,9.199 -5.64,12.5 -14.06,12.5 -13,0 -18.91,-6.699 -18.91,-17.199 V 558.5 h -6.63 v 46.602 h 6.63 v -9.204 h 0.18 c 1.97,5 8.96,10.602 19.26,10.602 15.5,0 20.16,-8 20.16,-19.199 V 558.5 h -6.63 v 30"
         style="fill:#ffffff;fill-opacity:1;fill-rule:nonzero;stroke:none"
         id="path546" />
      <path
         d="m 4888.29,573.398 c -2.69,-8.296 -9.67,-16.296 -25.08,-16.296 -19.09,0 -25.36,13.3 -25.36,24.699 0,13 7.98,24.699 25.36,24.699 12,0 26.24,-5.199 26.24,-26.301 h -44.97 c 0,-9.699 6.9,-17.597 18.73,-17.597 11.11,0 16.12,3.699 18.45,10.796 z m -5.46,11.801 c -1.89,11.5 -10.31,15.801 -19.18,15.801 -8.51,0 -17.65,-4.398 -19.17,-15.801 h 38.35"
         style="fill:#ffffff;fill-opacity:1;fill-rule:nonzero;stroke:none"
         id="path548" />
      <path
         d="m 4896.7,558.5 h 6.63 V 623 h -6.63 v -64.5"
         style="fill:#ffffff;fill-opacity:1;fill-rule:nonzero;stroke:none"
         id="path550" />
      <path
         d="m 4912.55,558.5 h 6.63 V 623 h -6.63 v -64.5"
         style="fill:#ffffff;fill-opacity:1;fill-rule:nonzero;stroke:none"
         id="path552" />
      <path
         d="m 4935.93,569.199 c 3.22,0 5.91,-2.699 5.91,-5.898 0,-3.199 -2.69,-5.899 -5.91,-5.899 -3.23,0 -5.91,2.7 -5.91,5.899 0,3.199 2.68,5.898 5.91,5.898"
         style="fill:#ffffff;fill-opacity:1;fill-rule:nonzero;stroke:none"
         id="path554" />
      <path
         d="m 4987.53,591.301 c -1.7,7.5 -6.36,9.597 -16.04,9.597 -6.98,0 -13.44,-1.496 -13.44,-7.898 0,-4.898 3.14,-5.801 17.29,-7.699 14.25,-1.903 20.16,-4.403 20.16,-13.5 0,-9.199 -7.52,-14.699 -22.13,-14.699 -14.78,0 -23.56,4.8 -23.56,16 h 6.09 c 1.17,-7.801 5.56,-10.5 17.47,-10.5 9.23,0 15.5,1.898 15.5,8.898 0,4.602 -3.31,6.703 -17.83,8.102 -14.51,1.5 -19.61,4.898 -19.61,13.097 0,8.102 6.53,13.801 20.06,13.801 15.14,0 21.32,-5.5 22.13,-15.199 h -6.09"
         style="fill:#ffffff;fill-opacity:1;fill-rule:nonzero;stroke:none"
         id="path556" />
      <path
         d="m 5001.85,613.102 h 6.64 V 623 h -6.64 z m 0,-54.602 h 6.64 v 46.602 h -6.64 V 558.5"
         style="fill:#ffffff;fill-opacity:1;fill-rule:nonzero;stroke:none"
         id="path558" />
      <path
         d="m 5065.28,575.199 c -1.25,-6.097 -6.63,-18.097 -23.56,-18.097 -16.84,0 -26.25,10.097 -26.25,24.699 0,14 8.6,24.699 26.25,24.699 15.95,0 22.13,-9.898 23.2,-16.699 h -6.63 c -2.06,8 -8.33,11.199 -16.57,11.199 -13.35,0 -19.62,-8.5 -19.62,-19.199 0,-11.602 6.99,-19.199 19.62,-19.199 9.76,0 15.23,5.3 16.93,12.597 h 6.63"
         style="fill:#ffffff;fill-opacity:1;fill-rule:nonzero;stroke:none"
         id="path560" />
      <path
         d="m 5071.99,623 h 6.63 v -27.102 h 0.18 c 1.97,5 8.96,10.602 19.26,10.602 15.49,0 20.16,-8.102 20.16,-19.199 V 558.5 h -6.63 v 30 c 0,9.199 -5.65,12.5 -14.08,12.5 -12.98,0 -18.89,-6.699 -18.89,-17.199 V 558.5 h -6.63 V 623"
         style="fill:#ffffff;fill-opacity:1;fill-rule:nonzero;stroke:none"
         id="path562" />
      <path
         d="m 5176.62,573.398 c -2.69,-8.296 -9.69,-16.296 -25.1,-16.296 -19.07,0 -25.34,13.3 -25.34,24.699 0,13 7.98,24.699 25.34,24.699 12.02,0 26.25,-5.199 26.25,-26.301 h -44.97 c 0,-9.699 6.91,-17.597 18.72,-17.597 11.12,0 16.14,3.699 18.47,10.796 z m -5.48,11.801 c -1.88,11.5 -10.3,15.801 -19.17,15.801 -8.5,0 -17.64,-4.398 -19.17,-15.801 h 38.34"
         style="fill:#ffffff;fill-opacity:1;fill-rule:nonzero;stroke:none"
         id="path564" />
      <path
         d="m 5185.21,605.102 h 6.63 v -10.7 h 0.17 c 2.42,5.598 6.81,12.098 17.83,12.098 1.88,0 2.95,-0.199 3.94,-0.398 v -6.801 c -2.06,0.398 -4.02,0.601 -6.09,0.601 -7.17,0 -15.85,-4.402 -15.85,-17.703 V 558.5 h -6.63 v 46.602"
         style="fill:#ffffff;fill-opacity:1;fill-rule:nonzero;stroke:none"
         id="path566" />
      <path
         d="m 5225.06,569.199 c 3.22,0 5.91,-2.699 5.91,-5.898 0,-3.199 -2.69,-5.899 -5.91,-5.899 -3.22,0 -5.9,2.7 -5.9,5.899 0,3.199 2.68,5.898 5.9,5.898"
         style="fill:#ffffff;fill-opacity:1;fill-rule:nonzero;stroke:none"
         id="path568" />
      <path
         d="m 5276.66,591.301 c -1.7,7.5 -6.36,9.597 -16.03,9.597 -6.99,0 -13.44,-1.496 -13.44,-7.898 0,-4.898 3.13,-5.801 17.28,-7.699 14.25,-1.903 20.16,-4.403 20.16,-13.5 0,-9.199 -7.52,-14.699 -22.12,-14.699 -14.78,0 -23.57,4.8 -23.57,16 h 6.1 c 1.16,-7.801 5.55,-10.5 17.47,-10.5 9.22,0 15.49,1.898 15.49,8.898 0,4.602 -3.31,6.703 -17.83,8.102 -14.51,1.5 -19.61,4.898 -19.61,13.097 0,8.102 6.54,13.801 20.07,13.801 15.13,0 21.32,-5.5 22.12,-15.199 h -6.09"
         style="fill:#ffffff;fill-opacity:1;fill-rule:nonzero;stroke:none"
         id="path570" />
      <path
         d="m 5295.64,619.801 h 6.63 v -14.699 h 13.17 v -5 h -13.17 v -30.903 c 0,-4 1.26,-5.898 6.63,-5.898 3.23,0 5.28,0.301 6.54,0.601 v -5.601 c -2.51,-0.301 -5.11,-0.5 -7.26,-0.5 -10.3,0 -12.54,4 -12.54,11.5 v 30.801 h -10.12 v 5 h 10.12 v 14.699"
         style="fill:#ffffff;fill-opacity:1;fill-rule:nonzero;stroke:none"
         id="path572" />
      <path
         d="m 5321.71,590.703 c 0.99,9.797 6.27,15.797 22.22,15.797 15.59,0 21.32,-4.801 21.32,-13.801 v -24.398 c 0,-3.801 1.07,-5.098 3.67,-5.098 1.17,0 2.33,0 3.5,0.098 v -4.399 c -1.35,-0.3 -3.41,-0.8 -5.56,-0.8 -6.72,0 -7.08,4.597 -7.17,8.3 h -0.17 c -2.07,-3.101 -6.55,-9.3 -21.78,-9.3 -7.97,0 -18.09,3.5 -18.09,13.898 0,12.699 12.99,14.102 23.2,14.602 14.51,0.8 16.31,1.699 16.31,6.199 0,6.699 -4.48,9.199 -15.41,9.199 -10.48,0 -15.5,-2.797 -15.95,-10.297 z m 37.45,-7.101 c -2.96,-1.903 -7.44,-2.301 -20.7,-3.5 -7.7,-0.7 -12.18,-3.102 -12.18,-8.602 0,-7.301 6.27,-9.398 13.44,-9.398 8.95,0 19.44,4.8 19.44,14.398 v 7.102"
         style="fill:#ffffff;fill-opacity:1;fill-rule:nonzero;stroke:none"
         id="path574" />
      <path
         d="m 5415.76,588.5 c 0,9.199 -5.64,12.5 -14.06,12.5 -12.99,0 -18.91,-6.699 -18.91,-17.199 V 558.5 h -6.62 v 46.602 h 6.62 v -9.204 h 0.18 c 1.97,5 8.96,10.602 19.26,10.602 15.5,0 20.16,-8 20.16,-19.199 V 558.5 h -6.63 v 30"
         style="fill:#ffffff;fill-opacity:1;fill-rule:nonzero;stroke:none"
         id="path576" />
      <path
         d="m 5428.65,564 35.39,35.5 h -33.33 v 5.602 h 42.82 V 599.5 l -36.1,-35.5 h 37.45 v -5.5 h -46.23 v 5.5"
         style="fill:#ffffff;fill-opacity:1;fill-rule:nonzero;stroke:none"
         id="path578" />
      <path
         d="m 5529.97,573.398 c -2.69,-8.296 -9.69,-16.296 -25.09,-16.296 -19.07,0 -25.35,13.3 -25.35,24.699 0,13 7.97,24.699 25.35,24.699 12,0 26.25,-5.199 26.25,-26.301 h -44.97 c 0,-9.699 6.9,-17.597 18.72,-17.597 11.11,0 16.13,3.699 18.45,10.796 z m -5.46,11.801 c -1.88,11.5 -10.32,15.801 -19.18,15.801 -8.51,0 -17.64,-4.398 -19.17,-15.801 h 38.35"
         style="fill:#ffffff;fill-opacity:1;fill-rule:nonzero;stroke:none"
         id="path580" />
      <path
         d="m 5578.15,588.5 c 0,9.199 -5.64,12.5 -14.06,12.5 -12.99,0 -18.91,-6.699 -18.91,-17.199 V 558.5 h -6.63 v 46.602 h 6.63 v -9.204 h 0.18 c 1.97,5 8.96,10.602 19.26,10.602 15.5,0 20.17,-8 20.17,-19.199 V 558.5 h -6.64 v 30"
         style="fill:#ffffff;fill-opacity:1;fill-rule:nonzero;stroke:none"
         id="path582" />
      <path
         d="m 3650,803.5 h 91.62 v -32 h 0.89 c 20.01,24.398 53.37,38.199 91.62,38.199 85.4,0 140.99,-47.097 140.99,-130.699 0,-69.898 -51.59,-126.398 -140.1,-126.398 -41.81,0 -73.83,13.8 -89.84,31.597 h -0.89 V 475.301 H 3650 Z m 161.45,-182.398 c 43.14,0 66.71,21.398 66.71,61.398 0,40 -23.57,61.402 -66.71,61.402 -44.03,0 -67.16,-24 -67.16,-61.402 0,-37.301 23.13,-61.398 67.16,-61.398"
         style="fill:#ffffff;fill-opacity:1;fill-rule:nonzero;stroke:none"
         id="path584" />
      <path
         d="m 4002.78,803.5 h 92.95 v -47.602 h 0.89 c 18.68,32.004 55.6,53.801 98.3,53.801 10.22,0 22.68,-0.898 32.02,-2.597 V 719 c -12.01,4.398 -34.24,8 -52.04,8 -53.81,0 -77.83,-27.598 -77.83,-71.199 v -93.399 h -94.29 V 803.5"
         style="fill:#ffffff;fill-opacity:1;fill-rule:nonzero;stroke:none"
         id="path586" />
      <path
         d="m 4572.53,634 c -11.56,-40 -57.37,-81.398 -160.11,-81.398 -108.52,0 -169.01,41.398 -169.01,130.796 0,85.403 66.27,129.903 166.34,129.903 103.18,0 167.23,-44.903 167.23,-145.5 v -7.098 h -236.61 c 4.89,-31.101 27.13,-53.801 75.6,-53.801 30.25,0 45.82,12.899 56.93,27.098 z m -92.51,75.602 c -5.34,26.699 -25.35,49.398 -69.83,49.398 -44.47,0 -64.49,-22.699 -69.82,-49.398 h 139.65"
         style="fill:#ffffff;fill-opacity:1;fill-rule:nonzero;stroke:none"
         id="path588" />
      <path
         d="m 5585.16,803.5 h 49.37 V 880 h 94.29 v -76.5 h 62.26 v -62.301 h -62.26 v -96.898 c 0,-21.801 5.34,-24.899 30.68,-24.899 11.56,0 20.91,0.399 33.36,0.797 V 561.5 c -19.12,-2.598 -44.03,-4.398 -71.61,-4.398 -61.37,0 -86.72,15.097 -86.72,67.199 v 116.898 h -49.37 V 803.5"
         style="fill:#ffffff;fill-opacity:1;fill-rule:nonzero;stroke:none"
         id="path590" />
      <path
         d="m 5836,727.902 c 8.9,71.598 76.94,81.797 150.77,81.797 87.62,0 153.45,-14.199 153.45,-81.797 V 606 c 0,-20.398 2.22,-29.801 9.78,-43.598 h -94.29 c -3.11,7.098 -4.45,15.598 -4.89,22.297 -27.13,-25.797 -65.82,-32.097 -113.41,-32.097 -76.95,0 -117.87,25 -117.87,75.199 0,54.699 36.47,74.301 104.08,78.699 l 93.84,6.301 c 24.46,1.699 28.47,7.101 28.47,19.5 0,16.898 -18.24,25.801 -59.6,25.801 -34.69,0 -51.59,-9.801 -56.04,-30.2 z M 6048.59,675 c -7.11,-2.301 -18.68,-4.5 -36.02,-6.699 l -63.6,-7.598 c -19.13,-2.203 -27.13,-9.805 -27.13,-24.402 0,-18.699 16.9,-29.399 42.25,-29.399 54.26,0 84.5,20.5 84.5,53.399 V 675"
         style="fill:#ffffff;fill-opacity:1;fill-rule:nonzero;stroke:none"
         id="path592" />
      <path
         d="M 5350.77,660.301 5434.83,650 c 16.65,-1.898 26.13,-4.297 30.15,-10.301 H 5573 c -1.58,44.602 -33.52,63.903 -96.81,70.801 l -81.39,8.902 c -24.02,2.7 -30.23,9.399 -30.23,16.899 0,16.5 16.01,22.699 43.14,22.699 12,0 24.45,-1.301 33.79,-5.301 9.34,-3.597 16.01,-10.301 16.9,-20.496 h 105.85 c -5.32,68.496 -86.28,80.098 -150.31,80.098 -90.3,0 -146.34,-20.5 -146.34,-85.899 0,-40.902 28.03,-60.5 83.17,-67.101"
         style="fill:#ffffff;fill-opacity:1;fill-rule:nonzero;stroke:none"
         id="path594" />
      <path
         d="M 5013.21,660.301 5097.27,650 c 16.65,-1.898 26.13,-4.297 30.14,-10.301 h 108.03 c -1.59,44.602 -33.52,63.903 -96.81,70.801 l -81.39,8.902 c -24.02,2.7 -30.24,9.399 -30.24,16.899 0,16.5 16.01,22.699 43.14,22.699 12.01,0 24.46,-1.301 33.8,-5.301 9.34,-3.597 16.01,-10.301 16.9,-20.496 h 105.85 c -5.33,68.496 -86.28,80.098 -150.33,80.098 -90.28,0 -146.32,-20.5 -146.32,-85.899 0,-40.902 28.02,-60.5 83.17,-67.101"
         style="fill:#ffffff;fill-opacity:1;fill-rule:nonzero;stroke:none"
         id="path596" />
      <path
         d="M 4675.64,660.301 4759.7,650 c 16.65,-1.898 26.13,-4.297 30.14,-10.301 h 108.03 c -1.59,44.602 -33.52,63.903 -96.81,70.801 l -81.39,8.902 c -24.02,2.7 -30.24,9.399 -30.24,16.899 0,16.5 16.01,22.699 43.14,22.699 12.01,0 24.46,-1.301 33.8,-5.301 9.34,-3.597 16.01,-10.301 16.9,-20.496 h 105.85 c -5.33,68.496 -86.28,80.098 -150.32,80.098 -90.29,0 -146.33,-20.5 -146.33,-85.899 0,-40.902 28.02,-60.5 83.17,-67.101"
         style="fill:#ffffff;fill-opacity:1;fill-rule:nonzero;stroke:none"
         id="path598" />
    </g>
  </g>
</svg>
