<?xml version="1.0" encoding="utf-8"?>
<!-- Generator: Adobe Illustrator 23.0.6, SVG Export Plug-In . SVG Version: 6.00 Build 0)  -->
<svg version="1.1" id="Ebene_1" xmlns="http://www.w3.org/2000/svg" xmlns:xlink="http://www.w3.org/1999/xlink" x="0px" y="0px"
	 viewBox="0 0 28 28" style="enable-background:new 0 0 28 28;" xml:space="preserve">
<style type="text/css">
	.st0{fill:#FFFFFF;}
</style>
<g>
	<g>
		<g>
			<path class="st0" d="M25.17,14.47c-0.13-0.61-0.43-1.13-0.9-1.55c-0.46-0.42-1-0.66-1.6-0.73c-1.92-0.21-4.81-0.31-8.67-0.31
				s-6.75,0.1-8.66,0.31c-0.61,0.07-1.15,0.32-1.61,0.73c-0.46,0.42-0.76,0.93-0.91,1.55c-0.27,1.21-0.41,3.03-0.41,5.47
				c0,2.48,0.13,4.3,0.41,5.47c0.13,0.61,0.43,1.13,0.9,1.55c0.46,0.42,1,0.66,1.6,0.72C7.25,27.89,10.13,28,14,28
				c3.86,0,6.75-0.11,8.67-0.33c0.61-0.06,1.13-0.3,1.59-0.72c0.46-0.42,0.76-0.93,0.91-1.55c0.27-1.21,0.41-3.03,0.41-5.47
				C25.58,17.46,25.44,15.63,25.17,14.47z M9.03,16.05H7.36v8.89H5.8v-8.89H4.16v-1.47h4.87V16.05L9.03,16.05z M13.25,24.94h-1.39
				v-0.84c-0.56,0.63-1.09,0.95-1.59,0.95c-0.48,0-0.78-0.19-0.91-0.58c-0.08-0.25-0.13-0.63-0.13-1.14v-6.11h1.39v5.69
				c0,0.33,0.01,0.51,0.02,0.55c0.03,0.22,0.14,0.33,0.33,0.33c0.28,0,0.58-0.22,0.89-0.66v-5.91h1.39L13.25,24.94L13.25,24.94z
				 M18.56,22.63c0,0.76-0.05,1.28-0.14,1.56c-0.18,0.57-0.55,0.86-1.11,0.86c-0.5,0-0.98-0.29-1.45-0.86v0.75h-1.39V14.58h1.39
				v3.39c0.45-0.56,0.93-0.84,1.45-0.84c0.56,0,0.93,0.29,1.11,0.87c0.09,0.27,0.14,0.79,0.14,1.55V22.63z M23.84,21.34h-2.8v1.36
				c0,0.72,0.24,1.08,0.72,1.08c0.34,0,0.55-0.19,0.63-0.56c0.02-0.1,0.03-0.42,0.03-0.95h1.42v0.2c0,0.51-0.01,0.81-0.03,0.91
				c-0.03,0.28-0.14,0.56-0.33,0.84c-0.37,0.55-0.94,0.83-1.69,0.83c-0.72,0-1.28-0.27-1.69-0.8c-0.3-0.39-0.45-0.99-0.45-1.81v-2.7
				c0-0.82,0.15-1.43,0.44-1.81c0.41-0.53,0.96-0.8,1.67-0.8c0.7,0,1.25,0.27,1.66,0.8c0.28,0.39,0.42,0.99,0.42,1.81V21.34
				L23.84,21.34z"/>
			<path class="st0" d="M16.56,18.39c-0.24,0-0.47,0.11-0.7,0.34v4.7c0.23,0.23,0.46,0.34,0.7,0.34c0.41,0,0.61-0.35,0.61-1.05v-3.3
				C17.17,18.74,16.97,18.39,16.56,18.39z"/>
			<path class="st0" d="M21.75,18.39c-0.47,0-0.7,0.35-0.7,1.06v0.72h1.41v-0.72C22.45,18.75,22.22,18.39,21.75,18.39z"/>
			<path class="st0" d="M8.13,6.23v4.23h1.56V6.23L11.58,0H9.98L8.92,4.11L7.81,0H6.16c0.29,0.87,0.63,1.85,1.01,2.92
				C7.66,4.36,7.98,5.46,8.13,6.23z"/>
			<path class="st0" d="M13.67,10.58c0.72,0,1.27-0.27,1.66-0.8c0.29-0.39,0.44-1,0.44-1.84V5.2c0-0.83-0.15-1.44-0.44-1.83
				c-0.39-0.53-0.94-0.8-1.66-0.8c-0.7,0-1.25,0.27-1.64,0.8c-0.29,0.39-0.44,0.99-0.44,1.83v2.73c0,0.83,0.15,1.45,0.44,1.84
				C12.43,10.31,12.97,10.58,13.67,10.58z M13,4.92c0-0.72,0.22-1.08,0.67-1.08c0.45,0,0.67,0.36,0.67,1.08V8.2
				c0,0.73-0.22,1.09-0.67,1.09C13.22,9.3,13,8.93,13,8.2V4.92z"/>
			<path class="st0" d="M17.97,10.58c0.52,0,1.06-0.32,1.61-0.97v0.86H21v-7.8h-1.42v5.95c-0.31,0.45-0.61,0.67-0.89,0.67
				c-0.19,0-0.3-0.11-0.33-0.34c-0.01-0.02-0.02-0.2-0.02-0.55V2.67h-1.42v6.16c0,0.53,0.04,0.92,0.13,1.17
				C17.18,10.39,17.49,10.58,17.97,10.58z"/>
		</g>
	</g>
</g>
</svg>
