<?xml version="1.0" encoding="UTF-8" standalone="no"?>
<svg
   xmlns:dc="http://purl.org/dc/elements/1.1/"
   xmlns:cc="http://creativecommons.org/ns#"
   xmlns:rdf="http://www.w3.org/1999/02/22-rdf-syntax-ns#"
   xmlns:svg="http://www.w3.org/2000/svg"
   xmlns="http://www.w3.org/2000/svg"
   id="svg1609"
   version="1.1"
   viewBox="0 0 18 15.000001"
   height="15"
   width="18">
  <defs
     id="defs1603" />
  <metadata
     id="metadata1606">
    <rdf:RDF>
      <cc:Work
         rdf:about="">
        <dc:format>image/svg+xml</dc:format>
        <dc:type
           rdf:resource="http://purl.org/dc/dcmitype/StillImage" />
        <dc:title></dc:title>
      </cc:Work>
    </rdf:RDF>
  </metadata>
  <g
     transform="translate(0,-1107.5196)"
     id="layer1">
    <path
       style="fill:none;stroke:#7b6f67;stroke-width:0.87;stroke-miterlimit:4;stroke-dasharray:none;stroke-opacity:1"
       id="path149"
       d="m 10.64776,1118.6911 -4.2900004,-2.26 m 0,-2.07 4.2900004,-2.26 m -4.6500004,5.48 a 2.49,2.49 0 1 1 0.35,-3.51 2.49,2.49 0 0 1 -0.32,3.51 z m 8.5899994,-4.63 a 2.49,2.49 0 1 1 0.35,-3.51 2.49,2.49 0 0 1 -0.35,3.51 z m 0,8.57 a 2.49,2.49 0 1 1 0.35,-3.51 2.49,2.49 0 0 1 -0.35,3.51 z"
       class="cls-27" />
  </g>
</svg>
